<?xml version="1.0" encoding="utf-8"?>
<!-- Generator: Adobe Illustrator 27.5.0, SVG Export Plug-In . SVG Version: 6.00 Build 0)  -->
<svg version="1.1" xmlns="http://www.w3.org/2000/svg" xmlns:xlink="http://www.w3.org/1999/xlink" x="0px" y="0px"
	 viewBox="0 0 500 500" style="enable-background:new 0 0 500 500;" xml:space="preserve">
<g id="BACKGROUND">
	<rect style="fill:#FFFFFF;" width="500" height="500"/>
</g>
<g id="OBJECTS">
	<g>
		<path style="fill:#F9A57E;" d="M271.406,103.165c-5.69,11.335-11.401,22.722-15.358,34.772
			c-3.957,12.05-6.123,24.882-4.523,37.464c0.215,1.694,0.695,3.647,2.258,4.334c2.022,0.888,4.126-0.977,5.526-2.685
			c17.938-21.907,31.158-48.599,32.652-76.873c0.101-1.902,0.144-3.843-0.382-5.673c-0.526-1.831-1.708-3.562-3.458-4.312
			c-2.712-1.162-5.813,0.291-8.213,2.007c-6.382,4.564-10.985,13.734-13.206,21.259"/>
		<path style="fill:#F9A57E;" d="M375.867,213.611c-0.658-1.558-2.571-2.082-4.242-2.344c-8.89-1.393-17.986-0.854-26.886,0.472
			c-21.642,3.225-51.598,17.044-57.148,19.275c-5.55,2.231-12.497,6.317-11.778,10.444s13.972,3.104,19.309,3.101
			s10.603-1.14,15.803-2.341c21.451-4.956,42.957-11.241,61.587-22.972C374.533,217.973,376.797,215.812,375.867,213.611z"/>
		<path style="fill:#F9A57E;" d="M211.303,222.349c-0.814-14.81-2.336-30.384-10.832-42.542c-1.745-2.497-4.411-5.047-7.389-4.406
			c-2.966,0.639-4.345,4.027-4.999,6.989c-2.264,10.26-1.617,20.991,0.488,31.284c2.105,10.294,5.633,20.233,9.15,30.134
			c1.415,3.984,2.839,7.975,4.588,11.828c0.88,1.938,4.169,10.395,6.597,10.517c3.93,0.198,3.065-23.569,3.025-26.796
			C211.861,233.684,211.614,228.014,211.303,222.349z"/>
		<path style="fill:#F9A57E;" d="M221.118,323.596c13.789-4.424,28.756-2.682,42.972,0.075c13.248,2.569,26.641,6.118,37.758,13.767
			c11.117,7.65,19.689,20.117,19.537,33.61c-0.017,1.475-0.198,3.091-1.254,4.122c-1.031,1.006-2.663,1.167-4.05,0.78
			c-1.387-0.387-2.591-1.237-3.772-2.06c-29.524-20.587-63.756-34.381-99.305-40.016c-1.014-0.161-2.164-0.402-2.681-1.29
			c-0.727-1.247,0.299-2.774,1.355-3.758c4.425-4.124,10.534-6.386,16.577-6.138"/>
		<path style="fill:#849989;" d="M247.007,239.238c-4.826-1.779-6.589-7.65-7.083-12.769c-0.865-8.963,0.236-18.325,4.585-26.209
			s12.266-14.071,21.226-14.963s18.566,4.302,21.53,12.805c2.029,5.822,0.906,12.291-1.152,18.102
			c-3.198,9.031-8.624,17.263-15.662,23.762c-2.598,2.399-5.465,4.595-8.77,5.853s-7.113,1.496-10.336,0.041
			c-5.279-2.384-7.708-8.484-8.952-14.141"/>
		<path style="fill:#849989;" d="M167.865,291.09c-5.138-5.307-8.028-12.475-9.307-19.751c-1.147-6.524-1.04-13.466,1.698-19.498
			c2.737-6.032,8.463-10.961,15.067-11.474c4.284-0.333,8.545,1.165,12.221,3.39c9.617,5.82,15.76,16.97,15.541,28.209
			c-0.182,9.336-4.771,18.633-12.056,24.482C184.096,302.013,173.269,296.672,167.865,291.09z"/>
		<g>
			<g>
				<path style="fill:#492216;" d="M187.751,370.827c1.305-1.863,1.764-4.089,2.555-6.185c0.968-2.563,2.297-5.003,3.447-7.487
					c2.2-4.75,3.915-9.68,5.306-14.724c0.667-2.418,1.254-4.825,1.545-7.32c0.308-2.635,0.383-5.29,0.481-7.939
					c0.186-5.02,1.155-10.138,0.504-15.153c-0.761-5.863-3.216-11.422-4.593-17.149c-0.205,0.205-0.41,0.41-0.615,0.615
					c4.456,0.935,6.611-4.926,7.607-8.208c0.673-2.216,1.142-4.501,1.43-6.799c0.367-2.933,0.164-5.932-0.186-8.857
					c-0.87-7.276-3.37-14.158-7.496-20.213c-3.424-5.025-8.028-9.999-13.922-12.029c-2.715-0.935-5.666-1.075-8.424-0.233
					c-3.197,0.976-5.979,3.119-8.193,5.577c-4.756,5.28-6.379,12.333-5.641,19.286c0.782,7.37,3.331,14.809,7.509,20.952
					c3.999,5.881,10.146,10.936,17.327,12.099c1.777,0.288,3.608,0.358,5.395,0.107c0.695-0.098,1.349-0.3,2.001-0.556
					c0.502-0.197,1.118-0.554,1.675-0.507c0.721,0.061,1.11,0.887,1.408,1.448c0.555,1.046,0.977,2.156,1.374,3.269
					c0.707,1.985,1.329,3.968,1.676,6.051c0.729,4.371,0.755,8.897,0.983,13.316c0.118,2.297,0.132,4.598,0.137,6.898
					c0.005,2.293-0.376,4.483-0.76,6.736c-0.351,2.055-0.572,4.152-0.533,6.238c0.01,0.531,0.648,0.634,0.932,0.252
					c0.899-1.211,1.423-2.632,1.893-4.052c0.493-1.493,1.04-2.935,1.619-4.396c0.655-1.652,1.003-3.394,1.401-5.119
					c0.426-1.849,0.905-3.687,1.41-5.517c2.027-7.338,4.53-14.535,7.707-21.456c6.104-13.3,13.996-25.683,20.429-38.819
					c1.892-3.863,4.039-7.593,6.04-11.4c0.825-1.568,1.675-3.093,2.572-4.62c0.743-1.264,1.491-2.6,1.653-4.081
					c-0.285,0.118-0.569,0.236-0.854,0.354c1.317,1.429,3.395,1.552,5.21,1.339c2.343-0.275,4.612-1.05,6.79-1.928
					c1.967-0.793,3.978-1.643,5.799-2.735c2.7-1.62,5.034-3.792,7.098-6.156c3.953-4.526,7.604-9.723,9.935-15.282
					c1.095-2.61,1.859-5.336,2.355-8.12c0.527-2.958,0.977-6.049,0.734-9.057c-0.427-5.275-2.93-10.256-7.237-13.407
					c-2.235-1.635-4.859-2.724-7.622-2.997c-3.081-0.304-6.213,0.337-9.101,1.385c-5.674,2.058-11.086,5.595-15.241,9.974
					c-4.054,4.273-6.963,9.5-8.776,15.087c-1.834,5.651-2.7,11.642-1.5,17.52c1.099,5.382,4.117,10.221,8.567,13.481
					c0.842,0.617,1.802,1.18,2.872,1.208c0.644,0.017,0.643-0.983,0-1c-1.141-0.03-2.218-0.912-3.048-1.613
					c-0.874-0.738-1.679-1.556-2.457-2.395c-1.872-2.02-3.27-4.343-4.162-6.953c-1.833-5.368-1.61-11.114-0.278-16.561
					c1.312-5.365,3.539-10.518,6.857-14.953c3.446-4.606,8.046-8.223,13.115-10.898c5.174-2.731,11.589-4.715,17.23-2.189
					c4.659,2.087,8.005,6.257,9.261,11.181c0.699,2.742,0.653,5.493,0.343,8.285c-0.303,2.731-0.778,5.45-1.561,8.088
					c-1.599,5.382-4.59,10.124-7.893,14.613c-3.393,4.611-7.256,8.747-12.514,11.196c-1.816,0.846-3.659,1.636-5.564,2.262
					c-1.975,0.649-4.192,1.281-6.291,0.988c-0.85-0.119-1.625-0.432-2.213-1.07c-0.322-0.35-0.81-0.045-0.854,0.354
					c-0.155,1.418-1.012,2.736-1.728,3.933c-0.776,1.298-1.493,2.607-2.195,3.948c-1.772,3.386-3.667,6.706-5.403,10.111
					c-3.312,6.493-6.655,12.939-10.194,19.313c-3.501,6.305-7.011,12.613-10.111,19.128c-3.135,6.592-5.697,13.396-7.788,20.388
					c-0.618,2.068-1.197,4.148-1.73,6.24c-0.495,1.944-0.87,3.923-1.416,5.854c-0.494,1.751-1.309,3.384-1.87,5.115
					c-0.555,1.711-1.066,3.464-2.153,4.927c0.311,0.084,0.621,0.168,0.932,0.252c-0.081-4.268,1.291-8.361,1.294-12.609
					c0.003-4.235-0.245-8.438-0.442-12.665c-0.188-4.04-0.381-8.162-1.638-12.039c-0.593-1.828-1.214-3.687-2.079-5.408
					c-0.511-1.017-1.202-2.234-2.494-2.234c-1.159,0-2.246,0.786-3.369,1.015c-1.77,0.361-3.735,0.251-5.506-0.048
					c-3.555-0.601-6.865-2.22-9.734-4.374c-5.906-4.436-9.752-11.042-12.061-17.96c-2.199-6.588-3.388-14.02-1.181-20.763
					c1.99-6.08,7.318-12.317,13.944-13.281c6.028-0.877,11.504,3.039,15.406,7.212c4.343,4.645,7.691,10.371,9.584,16.441
					c1.866,5.982,2.769,12.631,1.683,18.852c-0.401,2.295-0.963,4.581-1.795,6.759c-0.7,1.833-1.673,4.025-3.396,5.122
					c-0.706,0.449-1.497,0.612-2.318,0.439c-0.376-0.079-0.708,0.23-0.615,0.615c1.223,5.085,3.128,9.982,4.229,15.098
					c1.064,4.944,0.165,9.924-0.092,14.901c-0.268,5.193-0.295,10.298-1.626,15.363c-1.33,5.062-2.921,10.07-5.061,14.852
					c-1.213,2.71-2.573,5.353-3.754,8.077c-0.99,2.283-1.392,4.827-2.84,6.895C186.517,370.85,187.384,371.351,187.751,370.827
					L187.751,370.827z"/>
			</g>
			<g>
				<path style="fill:#492216;" d="M199.986,340.408c2.247-0.038,3.331-3.16,4.571-4.591c2.5-2.885,5.511-5.262,8.405-7.725
					c2.891-2.46,5.626-5.094,8.392-7.691c2.777-2.608,5.627-5.103,8.579-7.511c5.766-4.704,11.325-9.707,17.786-13.462
					c6.55-3.807,13.664-6.553,20.766-9.133c7.33-2.663,14.831-4.894,22.552-6.082c1.967-0.302,3.931-0.614,5.887-0.983
					c1.822-0.344,3.732-0.624,5.481-1.256c2.82-1.019,4.912-3.194,7.02-5.234c2.136-2.068,3.826-4.509,4.882-7.294
					c1.037-2.735,1.443-5.662,1.765-8.553c0.41-3.684,1.387-7.217,3.083-10.526c1.098-2.141,2.486-4.319,4.519-5.696
					c0.53-0.359,1.483-0.965,1.945-0.218c0.734,1.189,0.256,3.133-0.183,4.332c-0.57,1.557-1.514,2.959-2.452,4.314
					c-1.032,1.491-2.052,2.989-3.064,4.494c-1.1,1.636-2.206,3.278-3.192,4.985c-0.905,1.568-1.473,3.286-2.126,4.966
					c-1.378,3.544-3.754,6.62-6.342,9.371c-1.235,1.313-2.668,2.412-3.908,3.716c-0.319,0.336-0.068,0.811,0.354,0.854
					c2.515,0.257,4.636-1.624,6.873-2.453c2.504-0.927,5.119-1.417,7.514-2.643c4.749-2.431,8.706-6.424,12.216-10.367
					c3.721-4.179,7.166-8.59,10.967-12.701c1.717-1.857,3.531-3.585,5.473-5.206c1.248-1.042,2.583-2.25,4.117-2.849
					c0.754-0.295,1.581-0.054,1.781,0.806c0.17,0.728-0.212,1.543-0.545,2.168c-1.243,2.333-3.24,4.291-5.123,6.107
					c-3.552,3.425-7.415,6.669-11.476,9.482c-2.341,1.622-4.825,3.017-7.224,4.546c-2.35,1.497-4.509,3.302-6.973,4.618
					c-5.025,2.683-10.455,4.561-15.727,6.683c-1.269,0.511-2.532,1.034-3.786,1.578c-0.37,0.16-0.279,0.679,0,0.863
					c5.942,3.922,13.717,2.77,20.193,0.999c6.456-1.766,11.176-6.666,16.347-10.605c1.314-1.001,2.673-1.948,4.106-2.772
					c1.428-0.82,3.034-1.714,4.684-1.95c1.2-0.171,2.751,0.073,3.258,1.342c0.571,1.428-0.54,3.053-1.48,4.03
					c-2.323,2.412-5.878,3.041-8.997,3.788c-3.95,0.946-7.799,2.304-11.699,3.435c-4.418,1.281-8.937,2.37-13.508,2.937
					c-4.458,0.553-8.959,0.268-12.87-2.133c-0.554-0.34-1.032,0.505-0.505,0.863c6.302,4.28,14.206,5.534,21.607,6.483
					c3.749,0.481,7.481,1.078,11.219,0.189c1.942-0.462,3.778-1.247,5.564-2.127c2.098-1.034,4.234-1.961,6.437-2.749
					c1.328-0.475,2.633-1.013,3.981-1.433c1.286-0.401,2.861-0.924,4.177-0.387c2.82,1.151,0.724,4.233-0.663,5.68
					c-0.757,0.79-1.649,1.588-2.668,2.021c-1.763,0.748-3.952,0.843-5.837,0.879c-4.349,0.083-8.68-0.744-12.968-1.365
					c-5.076-0.735-10.275-1.425-15.168-3.01c-4.85-1.571-9.498-4.067-14.552-4.935c-0.434-0.074-0.916,0.486-0.486,0.836
					c2.743,2.233,6.172,2.672,9.352,3.983c3.789,1.561,7.484,3.344,11.27,4.915c2.978,1.236,5.958,2.238,9.081,3.033
					c2.912,0.741,5.848,1.424,8.684,2.43c2.661,0.944,5.334,2.207,7.323,4.262c1.262,1.304,3.331,4.41,1.301,5.956
					c-1.207,0.919-3.169,0.856-4.579,0.591c-1.613-0.304-3.083-1.068-4.394-2.038c-2.719-2.011-4.81-4.767-7.021-7.292
					c-1.228-1.402-2.504-2.769-3.94-3.962c-1.512-1.257-3.188-2.238-4.925-3.149c-3.801-1.994-7.787-3.638-11.369-6.03
					c-0.473-0.316-1.017,0.398-0.606,0.785c1.99,1.875,3.921,3.877,5.228,6.303c1.318,2.449,1.674,5.047,1.282,7.781
					c-0.274,1.915-0.629,3.83-1.216,5.676c-0.563,1.771-1.383,3.81-2.97,4.911c-1.223,0.849-3.598,1.08-4.383-0.493
					c-0.76-1.524-0.007-3.638,0.541-5.108c0.637-1.707,1.486-3.36,2.477-4.889c1.49-2.298,2.864-4.618,2.958-7.441
					c0.105-3.14-1.519-5.585-4.009-7.322c-2.283-1.592-5.068-2.835-7.831-3.258c-0.544-0.083-0.885,0.586-0.385,0.914
					c1.178,0.771,1.856,2.249,2.34,3.517c0.72,1.886,1.145,3.893,1.395,5.892c0.489,3.915,0.551,8.406-1.042,12.098
					c-0.561,1.301-1.456,2.652-2.873,3.107c-0.763,0.245-1.771,0.289-2.494-0.092c-0.717-0.378-0.848-1.168-0.804-1.912
					c0.117-1.991,1.202-3.972,2.175-5.664c1.276-2.219,2.858-4.188,3.636-6.673c0.876-2.797,0.857-5.971-0.335-8.675
					c-1.028-2.332-3.061-3.878-5.641-2.863c-0.592,0.233-0.334,1.2,0.266,0.964c1.207-0.475,2.375-0.414,3.322,0.535
					c0.749,0.75,1.208,1.776,1.52,2.775c0.948,3.039,0.436,6.387-0.999,9.186c-1.06,2.068-2.535,3.875-3.552,5.977
					c-0.796,1.645-1.813,3.849-1.272,5.718c0.53,1.831,2.733,2.186,4.351,1.716c1.479-0.43,2.556-1.624,3.255-2.949
					c1.923-3.647,1.977-8.314,1.59-12.317c-0.228-2.361-0.656-4.741-1.488-6.969c-0.587-1.572-1.394-3.285-2.845-4.235
					c-0.128,0.305-0.257,0.609-0.385,0.914c2.66,0.408,5.297,1.578,7.504,3.096c1.022,0.703,2.033,1.552,2.659,2.64
					c0.893,1.55,1.131,3.375,0.807,5.122c-0.489,2.643-2.12,4.622-3.407,6.886c-0.993,1.746-1.874,3.619-2.378,5.569
					c-0.403,1.558-0.68,3.62,0.55,4.898c1.214,1.262,3.413,1.23,4.87,0.451c1.75-0.935,2.76-2.856,3.448-4.634
					c0.746-1.929,1.173-3.974,1.493-6.012c0.2-1.279,0.396-2.564,0.327-3.862c-0.083-1.551-0.471-3.057-1.099-4.475
					c-1.303-2.942-3.564-5.331-5.876-7.51c-0.202,0.262-0.404,0.524-0.606,0.785c3.35,2.238,7.056,3.824,10.633,5.65
					c1.723,0.879,3.452,1.794,4.981,2.988c1.408,1.099,2.663,2.383,3.853,3.711c4.109,4.584,9.05,11.904,16.255,10.186
					c2.445-0.583,3.324-2.762,2.476-5.028c-0.94-2.513-3.112-4.377-5.382-5.685c-5.395-3.108-11.762-3.759-17.595-5.675
					c-4.371-1.435-8.557-3.477-12.759-5.334c-1.999-0.883-3.974-1.727-6.068-2.361c-2.12-0.642-4.221-1.3-5.966-2.722
					c-0.162,0.279-0.324,0.557-0.486,0.836c4.668,0.802,8.991,3.019,13.44,4.561c4.587,1.59,9.419,2.354,14.205,3.078
					c4.519,0.683,9.111,1.561,13.686,1.697c3.176,0.094,6.927,0.044,9.534-2.005c1.716-1.348,3.943-3.711,3.665-6.102
					c-0.137-1.177-1.004-1.969-2.06-2.393c-1.351-0.543-2.833-0.208-4.186,0.172c-1.478,0.416-2.897,1.001-4.338,1.525
					c-2.137,0.776-4.228,1.631-6.276,2.621c-1.939,0.937-3.867,1.843-5.973,2.344c-2.04,0.485-4.134,0.566-6.215,0.347
					c-4.496-0.473-9.019-1.046-13.436-2.023c-4.355-0.963-8.686-2.371-12.403-4.895c-0.168,0.288-0.336,0.576-0.505,0.863
					c3.494,2.145,7.513,2.744,11.554,2.451c4.094-0.298,8.211-1.181,12.177-2.21c4.386-1.138,8.68-2.588,13.034-3.84
					c3.26-0.937,6.816-1.318,9.743-3.158c2.084-1.31,4.906-4.455,3.206-7.058c-1.737-2.659-5.518-1.195-7.709-0.106
					c-6.287,3.125-10.852,8.744-16.974,12.12c-3.571,1.969-7.779,2.897-11.811,3.318c-4.217,0.44-8.622,0.078-12.244-2.312
					c0,0.288,0,0.576,0,0.863c5.397-2.339,10.971-4.251,16.319-6.704c2.682-1.23,5.121-2.67,7.528-4.373
					c2.348-1.661,4.811-3.117,7.248-4.64c4.75-2.967,9.173-6.58,13.274-10.383c2.101-1.949,4.23-4.017,5.8-6.432
					c0.872-1.341,1.944-3.486,0.522-4.847c-0.955-0.914-2.071-0.657-3.148-0.088c-1.479,0.78-2.766,1.902-4.046,2.965
					c-4.342,3.607-7.991,7.994-11.6,12.312c-3.63,4.342-7.275,8.701-11.674,12.298c-2.232,1.825-4.689,3.426-7.433,4.359
					c-1.359,0.462-2.757,0.798-4.118,1.253c-1.241,0.415-2.379,0.98-3.535,1.586c-1.165,0.611-2.38,1.199-3.728,1.061
					c0.118,0.285,0.236,0.569,0.354,0.854c1.304-1.372,2.806-2.529,4.097-3.918c1.248-1.343,2.42-2.761,3.485-4.254
					c1.084-1.521,2.018-3.112,2.723-4.844c0.735-1.807,1.31-3.672,2.302-5.365c1.952-3.33,4.217-6.478,6.395-9.661
					c1.666-2.434,3.532-5.547,2.705-8.63c-0.214-0.797-0.733-1.529-1.623-1.572c-0.866-0.042-1.685,0.483-2.345,0.984
					c-1.985,1.506-3.382,3.591-4.506,5.784c-1.647,3.216-2.741,6.71-3.141,10.303c-0.335,3.015-0.706,6.056-1.771,8.916
					c-1.13,3.035-3.082,5.436-5.396,7.653c-1.151,1.102-2.286,2.252-3.618,3.138c-1.388,0.923-2.89,1.388-4.505,1.742
					c-3.972,0.869-7.997,1.381-11.99,2.129c-3.957,0.741-7.863,1.739-11.713,2.914c-7.359,2.246-14.671,4.966-21.666,8.174
					c-3.507,1.609-6.935,3.402-10.163,5.52c-3.109,2.04-6.038,4.34-8.908,6.7c-2.914,2.395-5.845,4.777-8.731,7.205
					c-2.945,2.478-5.725,5.143-8.527,7.779c-2.847,2.678-5.801,5.195-8.769,7.734c-2.525,2.16-5.024,4.441-6.878,7.212
					c-0.535,0.799-1.411,2.408-2.527,2.427C199.343,339.419,199.341,340.419,199.986,340.408L199.986,340.408z"/>
			</g>
			<g>
				<path style="fill:#492216;" d="M200.561,340.261c3.626-3.738,7.019-7.802,11.335-10.782c4.268-2.947,9.074-5.114,13.956-6.82
					c5.121-1.789,10.383-3.186,15.743-4.041c5.367-0.855,10.829-1.173,16.261-1.09c10.948,0.166,21.705,2.643,31.967,6.361
					c4.797,1.738,9.595,3.626,14.053,6.124c3.983,2.232,7.696,4.925,11.044,8.029c7.05,6.537,12.764,14.86,15.711,24.04
					c0.787,2.452,1.43,4.952,1.968,7.469c0.511,2.389,0.909,4.828,0.875,7.278c-0.016,1.151-0.13,2.304-0.441,3.415
					c-0.256,0.916-0.651,1.976-1.495,2.512c-1.369,0.87-3.144-0.216-4.271-1.014c-1.862-1.318-3.443-3.063-5.023-4.694
					c-1.891-1.952-3.746-3.942-5.722-5.809c-3.866-3.651-8.217-6.858-12.557-9.92c-8.865-6.253-18.312-11.662-28.065-16.401
					c-4.655-2.262-9.403-4.272-14.336-5.852c-4.994-1.6-10.112-2.808-15.29-3.636c-10.205-1.631-20.644-1.812-30.89-0.443
					c-1.216,0.162-2.429,0.345-3.638,0.551c-1.155,0.197-2.328,0.548-3.509,0.457c0.167,0.167,0.333,0.333,0.5,0.5
					c0.078-1.725,1.841-2.797,3.196-3.531c1.764-0.955,3.619-1.788,5.446-2.612c4.869-2.195,9.939-3.903,15.206-4.829
					c10.067-1.77,20.235-0.528,30.262,0.878c8.451,1.185,16.918,2.622,25.052,5.262c8.113,2.633,15.886,6.565,22.127,12.46
					c3.343,3.157,6.326,6.794,8.953,10.561c2.751,3.945,5.163,8.242,6.464,12.897c0.302,1.081,0.536,2.178,0.702,3.288
					c0.279-0.162,0.557-0.324,0.836-0.486c-2.697-3.048-4.663-6.625-6.987-9.945c-2.299-3.284-5.077-6.281-7.863-9.155
					c-5.637-5.813-12.289-10.519-19.527-14.133c-7.573-3.781-15.691-6.077-24.059-7.258c-4.248-0.599-8.527-0.946-12.812-1.135
					c-4.531-0.2-9.06-0.443-13.592-0.635c-4.493-0.19-9.037-0.434-13.532-0.213c-4.004,0.197-7.956,0.925-11.817,1.985
					c-0.985,0.27-1.964,0.561-2.94,0.863c-0.613,0.19-0.351,1.156,0.266,0.964c3.829-1.187,7.733-2.165,11.726-2.596
					c4.317-0.466,8.695-0.276,13.025-0.13c4.449,0.15,8.893,0.393,13.339,0.603c4.325,0.204,8.644,0.388,12.95,0.866
					c8.391,0.931,16.684,2.836,24.393,6.334c7.291,3.308,14.163,7.724,19.95,13.275c2.894,2.776,5.69,5.776,8.185,8.917
					c2.478,3.119,4.368,6.651,6.753,9.838c0.582,0.778,1.191,1.534,1.834,2.261c0.368,0.415,0.902-0.045,0.836-0.486
					c-0.715-4.796-2.779-9.308-5.294-13.415c-2.543-4.152-5.6-8.007-8.906-11.576c-5.974-6.449-13.676-10.92-21.877-13.925
					c-8.287-3.037-17.018-4.662-25.726-5.937c-10.078-1.476-20.33-2.933-30.505-1.574c-5.435,0.726-10.691,2.243-15.743,4.362
					c-2.122,0.89-4.19,1.89-6.266,2.878c-1.544,0.735-3.219,1.561-4.275,2.957c-0.475,0.627-0.744,1.335-0.78,2.122
					c-0.013,0.285,0.24,0.48,0.5,0.5c1.194,0.092,2.383-0.25,3.55-0.454c1.308-0.228,2.622-0.427,3.938-0.599
					c2.627-0.344,5.267-0.583,7.912-0.724c5.301-0.281,10.623-0.161,15.907,0.35c10.668,1.03,21.235,3.662,31.057,7.972
					c4.995,2.192,9.87,4.708,14.651,7.331c4.853,2.662,9.604,5.513,14.214,8.577c4.651,3.091,9.159,6.399,13.463,9.958
					c4.236,3.502,7.758,7.719,11.753,11.474c2.032,1.91,6.031,4.997,8.354,1.781c1.291-1.786,1.474-4.349,1.436-6.477
					c-0.043-2.459-0.47-4.905-0.997-7.301c-1.142-5.194-2.704-10.344-5.189-15.066c-2.203-4.187-4.973-8.134-8.063-11.713
					c-6.147-7.121-13.859-12.526-22.506-16.178c-10.177-4.299-20.807-7.641-31.818-8.881c-10.897-1.228-22.17-0.447-32.777,2.34
					c-5.185,1.362-10.329,3.097-15.154,5.45c-2.371,1.156-4.709,2.454-6.864,3.979c-2.134,1.511-4.068,3.277-5.905,5.133
					c-1.816,1.836-3.549,3.752-5.347,5.606C199.406,340.016,200.112,340.724,200.561,340.261L200.561,340.261z"/>
			</g>
			<g>
				<path style="fill:#492216;" d="M201.579,332.93c2.104-6.105,4.655-12.062,6.365-18.299c1.703-6.212,2.975-12.558,4.008-18.914
					c2.077-12.785,3.154-25.767,3.481-38.711c0.166-6.558,0.109-13.122-0.208-19.674c-0.318-6.569-1.157-13.084-2.058-19.595
					c-0.887-6.405-1.702-12.82-2.898-19.177c-1.084-5.766-2.528-11.445-4.208-17.065c-3.347-11.202-7.854-22.686-16.332-31.044
					c-0.268-0.264-0.735-0.144-0.836,0.221c-3.277,11.812-8.289,23.106-10.424,35.229c-2.223,12.617-2.891,25.449-2.974,38.242
					c-0.084,12.9,1.03,25.709,2.541,38.51c1.471,12.466,2.982,24.933,5.742,37.193c1.536,6.822,3.318,13.672,5.964,20.157
					c1.174,2.877,2.565,5.638,4.07,8.354c1.353,2.443,2.835,4.954,4.994,6.777c0.186,0.157,0.388,0.179,0.606,0.078
					c1.503-0.692,2.191-2.293,2.687-3.777c0.742-2.224,1.234-4.518,1.556-6.837c0.374-2.694,0.587-5.407,1.027-8.092
					c0.464-2.832,0.899-5.668,1.29-8.511c1.538-11.182,2.567-22.479,2.891-33.764c0.635-22.119-2.858-44.184-7.721-65.698
					c-1.263-5.588-2.607-11.154-3.843-16.748c-1.113-5.037-2.386-10.177-5.065-14.641c-0.27-0.45-0.889-0.224-0.932,0.252
					c-0.404,4.477,0.41,8.965,1.085,13.375c0.75,4.898,1.572,9.751,2.501,14.619c1.952,10.228,3.276,20.639,4.641,30.96
					c0.658,4.974,1.161,9.969,1.917,14.93c0.771,5.054,1.715,10.08,2.495,15.133c1.578,10.226,1.953,20.485,1.143,30.802
					c-0.907,11.555-3.058,23-4.283,34.527c-0.054,0.508,0.702,0.66,0.932,0.252c0.748-1.325,1.178-2.773,1.62-4.221
					c0.585-1.919,1.367-3.72,2.265-5.513c1.681-3.357,3.027-6.792,4.223-10.35c1.188-3.533,2.291-7.1,3.717-10.547
					c1.479-3.576,2.983-7.132,4.293-10.776c2.547-7.089,4.565-14.373,5.85-21.798c1.354-7.828,2.415-15.707,3.615-23.559
					c1.226-8.021,2.55-16.034,4.29-23.962c1.71-7.789,3.671-15.532,5.653-23.255c3.971-15.472,8.345-30.845,13.328-46.023
					c4.854-14.786,9.943-29.542,16.418-43.71c2.857-6.253,5.749-12.737,10.301-17.969c0.995-1.144,2.057-2.228,3.167-3.26
					c0.59-0.548,1.196-1.078,1.807-1.603c0.798-0.686,1.962-2.361,3.138-1.299c0.703,0.635,0.855,2.043,1.003,2.917
					c0.213,1.256,0.295,2.529,0.382,3.799c0.972,14.128-1.406,28.023-6.002,41.373c-4.594,13.345-11.091,25.935-17.833,38.299
					c-3.362,6.166-6.77,12.306-10.144,18.466c-3.72,6.79-7.509,13.554-10.746,20.592c-3.284,7.14-5.981,14.59-8.603,21.994
					c-2.624,7.409-4.518,14.999-6.769,22.521c-0.546,1.823-1.124,3.637-1.761,5.43c-0.633,1.782-1.07,3.691-1.859,5.408
					c0.305,0.128,0.609,0.257,0.914,0.385c0.897-2.342,1.313-4.801,1.807-7.25c0.535-2.658,1.375-5.196,2.257-7.757
					c1.793-5.208,3.585-10.383,4.979-15.715c2.846-10.891,5.345-21.871,8.275-32.741c5.704-21.166,13.966-41.419,21.818-61.846
					c2.172-5.65,4.301-11.318,6.311-17.029c1.999-5.677,4.27-11.246,7.213-16.506c-0.311-0.084-0.621-0.168-0.932-0.252
					c0.046,3.866-1.59,7.233-2.997,10.738c-1.513,3.769-3.025,7.539-4.488,11.328c-3.041,7.881-6.419,15.627-9.394,23.535
					c-2.95,7.841-5.332,15.874-8.292,23.708c-1.489,3.941-3.153,7.816-4.601,11.772c-1.431,3.913-2.667,7.894-3.903,11.873
					c-1.393,4.484-2.866,8.931-4.412,13.364c-1.465,4.199-2.847,8.46-3.263,12.91c-0.06,0.64,0.94,0.636,1,0
					c0.385-4.118,1.651-8.087,2.996-11.978c1.348-3.901,2.698-7.794,3.93-11.734c1.243-3.975,2.447-7.963,3.811-11.899
					c1.378-3.977,3.016-7.85,4.538-11.772c3.032-7.814,5.403-15.851,8.314-23.708c2.936-7.923,6.254-15.689,9.359-23.545
					c1.711-4.33,3.452-8.65,5.135-12.991c1.476-3.809,3.318-7.414,3.268-11.601c-0.006-0.487-0.685-0.692-0.932-0.252
					c-5.169,9.239-8.189,19.455-11.922,29.312c-3.886,10.262-7.98,20.444-11.846,30.714c-3.85,10.229-7.455,20.553-10.429,31.074
					c-3.085,10.914-5.626,21.971-8.415,32.962c-1.543,6.082-3.308,12.031-5.372,17.957c-0.977,2.805-2.049,5.611-2.697,8.514
					c-0.641,2.869-1.023,5.79-2.08,8.549c-0.201,0.525,0.677,0.9,0.914,0.385c0.734-1.597,1.117-3.328,1.718-4.977
					c0.679-1.862,1.291-3.747,1.865-5.643c1.179-3.894,2.196-7.833,3.304-11.747c2.213-7.816,5.069-15.425,7.983-23.001
					c5.61-14.585,13.46-28.089,20.997-41.739c6.926-12.542,13.85-25.143,19.193-38.461c5.293-13.194,8.929-27.167,9.051-41.451
					c0.026-3.074-0.11-6.153-0.379-9.215c-0.166-1.891-0.23-4.867-1.935-6.11c-1.007-0.734-1.939-0.311-2.798,0.419
					c-1.275,1.082-2.543,2.192-3.749,3.351c-2.185,2.099-4.138,4.426-5.815,6.95c-4.117,6.199-7.073,13.324-9.976,20.15
					c-3.049,7.171-5.8,14.464-8.389,21.812c-5.385,15.282-10.241,30.748-14.567,46.362c-4.357,15.727-8.613,31.61-11.583,47.665
					c-1.493,8.072-2.681,16.195-3.891,24.313c-1.181,7.921-2.243,15.887-4.226,23.657c-1.953,7.65-4.643,15.077-7.743,22.332
					c-3.074,7.192-4.844,14.818-8.352,21.836c-0.747,1.494-1.453,3.006-1.969,4.597c-0.542,1.672-0.944,3.394-1.815,4.936
					c0.311,0.084,0.621,0.168,0.932,0.252c1.09-10.257,2.872-20.431,3.933-30.687c1.047-10.119,1.122-20.34-0.19-30.437
					c-0.644-4.956-1.531-9.876-2.359-14.804c-0.868-5.171-1.503-10.357-2.154-15.558c-1.267-10.136-2.81-20.237-4.348-30.335
					c-0.851-5.588-2.184-11.086-2.936-16.691c-0.702-5.239-1.926-10.52-1.447-15.834c-0.311,0.084-0.621,0.168-0.932,0.252
					c2.388,3.979,3.616,8.514,4.649,13.001c1.054,4.58,2.063,9.167,3.141,13.743c2.474,10.504,4.631,21.09,6.197,31.77
					c1.582,10.79,2.556,21.686,2.577,32.597c0.021,10.937-0.869,21.92-2.14,32.777c-0.716,6.119-1.859,12.179-2.575,18.293
					c-0.346,2.956-0.594,5.94-1.353,8.828c-0.5,1.905-0.979,4.78-2.959,5.692c0.202,0.026,0.404,0.052,0.606,0.078
					c-1.999-1.689-3.381-3.974-4.647-6.233c-1.369-2.441-2.662-4.924-3.76-7.5c-2.416-5.663-4.08-11.64-5.54-17.61
					c-2.998-12.261-4.634-24.742-6.149-37.254c-1.517-12.531-2.863-25.114-2.928-37.75c-0.065-12.698,0.413-25.468,2.312-38.038
					c1.014-6.711,2.644-13.207,4.748-19.656c2.114-6.48,4.486-12.876,6.309-19.447c-0.279,0.074-0.557,0.147-0.836,0.221
					c7.69,7.582,12.044,17.818,15.26,27.954c3.578,11.279,5.713,22.764,7.309,34.471c0.91,6.676,1.92,13.346,2.415,20.07
					c0.464,6.305,0.565,12.648,0.503,18.967c-0.128,13.04-1.068,26.122-2.938,39.03c-1.016,7.01-2.36,13.973-4.101,20.84
					c-1.751,6.907-4.539,13.452-6.855,20.174C200.404,333.274,201.37,333.535,201.579,332.93L201.579,332.93z"/>
			</g>
			<g>
				<path style="fill:#492216;" d="M224.023,265.819c0.737-2.512,3.123-4.237,4.979-5.927c2.223-2.025,4.558-3.927,7.015-5.662
					c5.016-3.542,10.354-6.704,15.612-9.873c5.33-3.212,10.74-6.297,16.279-9.136c5.498-2.819,11.073-5.51,16.612-8.248
					c5.676-2.806,11.51-5.094,17.503-7.125c5.83-1.976,11.621-4.107,17.527-5.846c11.848-3.488,24.034-5.654,36.216-7.596
					c11.183-1.783,22.794-3.844,34.12-2.139c1.313,0.198,2.615,0.457,3.903,0.78c-0.074-0.279-0.147-0.557-0.221-0.836
					c-1.864,1.518-4.166,2.432-6.395,3.269c-2.178,0.818-4.359,1.592-6.486,2.538c-5.531,2.461-11.126,4.78-16.607,7.351
					c-10.551,4.95-21.591,8.638-32.699,12.111c-5.61,1.754-11.233,3.465-16.814,5.312c-5.814,1.923-11.597,3.94-17.386,5.938
					c-11.459,3.953-23.066,7.452-34.513,11.44c-5.755,2.005-11.482,4.09-17.197,6.206c-2.819,1.044-5.6,2.185-8.408,3.257
					c-1.368,0.523-2.742,1.074-4.152,1.473c-1.233,0.348-2.492,0.593-3.741,0.875c-1.184,0.268-2.361,0.565-3.483,1.035
					c0.128,0.305,0.257,0.609,0.385,0.914c8.597-5.659,16.933-11.681,25.723-17.046c8.692-5.304,17.284-10.794,26.31-15.524
					c17.483-9.163,36.303-15.82,55.68-19.597c5.729-1.117,11.48-1.876,17.291-2.412c2.855-0.264,5.71-0.498,8.553-0.876
					c2.907-0.387,5.816-0.804,8.757-0.733c0.654,0.016,0.628-0.937,0-1c-3.745-0.374-7.48,1.049-11.063,1.924
					c-4.409,1.076-8.845,2.042-13.216,3.266c-8.908,2.494-17.758,5.187-26.646,7.75c-16.749,4.829-33.52,9.816-49.365,17.178
					c-2.15,0.999-4.26,2.078-6.404,3.09c-2.072,0.978-4.166,1.913-6.196,2.977c-4.17,2.185-7.599,5.481-11.761,7.661
					c-0.57,0.299-0.065,1.162,0.505,0.863c3.684-1.93,6.725-4.829,10.331-6.882c3.548-2.02,7.345-3.618,11.012-5.409
					c7.803-3.81,15.889-7.009,24.089-9.854c8.169-2.834,16.454-5.32,24.761-7.714c8.747-2.521,17.468-5.132,26.219-7.64
					c4.864-1.394,9.756-2.612,14.678-3.78c2.207-0.524,4.395-1.116,6.596-1.664c2.106-0.525,4.28-0.984,6.46-0.767
					c0-0.333,0-0.667,0-1c-2.612-0.063-5.201,0.257-7.784,0.603c-2.616,0.35-5.233,0.615-7.861,0.854
					c-5.207,0.474-10.392,1.016-15.544,1.919c-9.744,1.708-19.357,4.153-28.744,7.272c-9.333,3.102-18.448,6.869-27.247,11.262
					c-9.166,4.576-17.87,9.965-26.588,15.328c-4.901,3.015-9.791,6.023-14.561,9.246c-4.838,3.269-9.613,6.63-14.49,9.84
					c-0.443,0.292-0.166,1.145,0.385,0.914c2.35-0.984,4.921-1.244,7.355-1.948c2.852-0.825,5.614-2.051,8.375-3.136
					c5.679-2.232,11.433-4.285,17.182-6.329c11.52-4.097,23.226-7.61,34.791-11.569c11.472-3.927,22.921-7.871,34.503-11.467
					c11.084-3.441,22.189-6.934,32.815-11.641c5.488-2.431,10.934-4.95,16.438-7.347c2.543-1.107,5.055-2.274,7.66-3.229
					c2.221-0.814,4.477-1.585,6.578-2.683c0.931-0.486,1.809-1.049,2.624-1.712c0.296-0.241,0.119-0.75-0.221-0.836
					c-10.954-2.751-22.685-1.123-33.671,0.59c-12.396,1.933-24.811,3.95-36.943,7.198c-6.051,1.62-11.919,3.726-17.85,5.722
					c-5.964,2.008-11.931,3.999-17.654,6.637c-5.753,2.652-11.372,5.613-17.065,8.393c-5.732,2.799-11.321,5.884-16.814,9.124
					c-5.442,3.209-10.804,6.559-16.114,9.983c-2.479,1.599-4.854,3.356-7.118,5.248c-1.127,0.942-2.219,1.922-3.299,2.918
					c-0.951,0.877-1.945,1.717-2.789,2.702c-0.752,0.878-1.35,1.843-1.677,2.957C222.878,266.171,223.842,266.436,224.023,265.819
					L224.023,265.819z"/>
			</g>
			<g>
				<path style="fill:#492216;" d="M225.819,259.908c-0.06-14.524-4.542-28.536-8.604-42.331c-1.021-3.466-2-6.94-3.098-10.382
					c-1.043-3.271-2.077-6.692-1.745-10.166c0.351-3.675,2.457-6.931,4.299-10.038c1.823-3.074,3.615-6.132,5.137-9.37
					c1.528-3.252,2.938-6.558,4.333-9.869c1.374-3.262,2.867-6.481,4.135-9.787c0.963-2.51,1.667-5.08,2.26-7.698
					c0.469-2.071,0.939-4.243,0.869-6.378c-0.038-1.146-0.347-3.151-1.864-3.191c-1.06-0.028-2.067,1.073-2.728,1.764
					c-3.085,3.225-5.445,7.274-7.589,11.156c-2.684,4.86-4.593,9.901-6.382,15.145c-1.181,3.459-2.294,6.948-3.129,10.508
					c-0.809,3.447-1.278,6.952-1.564,10.479c-0.147,1.81-0.221,3.624-0.214,5.44c0.333,0,0.667,0,1,0
					c-0.69-5.246-2.731-10.16-3.058-15.475c-0.319-5.205-0.087-10.568,0.949-15.686c1.042-5.147,2.835-10.106,3.907-15.246
					c1.117-5.352,1.848-10.916,2.237-16.369c0.192-2.683,0.279-5.393,0.054-8.076c-0.21-2.511-0.829-4.911-1.474-7.338
					c-0.333-1.253-0.949-3.175-2.483-3.413c-1.131-0.175-1.666,1.103-1.96,1.971c-0.493,1.456-0.67,3.002-0.941,4.508
					c-0.47,2.617-1.036,5.221-1.601,7.819c-1.182,5.43-2.26,10.855-3.019,16.364c-0.757,5.489-1.481,11.046-1.559,16.594
					c-0.075,5.296,0.563,10.651,2.848,15.483c0.173,0.366,0.855,0.303,0.914-0.119c0.592-4.266-2.489-7.93-4.557-11.348
					c-2.546-4.208-5.862-8.252-7.161-13.078c-0.711-2.643-0.687-5.383-0.48-8.092c0.205-2.68,0.448-5.353,0.628-8.036
					c0.185-2.769,0.41-5.535,0.57-8.305c0.14-2.441,0.328-4.923,0.078-7.362c-0.467-4.563-2.06-9.324-5.113-12.818
					c-0.308-0.353-0.823-0.044-0.854,0.354c-0.228,2.967-1.539,5.741-2.664,8.453c-1.144,2.758-1.98,5.52-2.408,8.482
					c-0.437,3.023-0.519,6.102-0.02,9.123c0.505,3.054,1.445,6.055,2.574,8.932c1.268,3.23,2.822,6.335,4.501,9.369
					c0.272,0.491,1.085,0.161,0.914-0.385c-0.836-2.669-2.514-4.974-4.066-7.264c-1.63-2.405-3.08-4.927-4.663-7.364
					c-1.631-2.512-3.271-5.027-4.625-7.703c-1.476-2.917-2.634-6.014-3.657-9.116c-3.744-11.36-5.263-23.519-5.507-35.447
					c-0.089-4.348-0.084-8.758,0.444-13.081c0.094-0.77,0.209-1.541,0.39-2.296c0.093-0.39,0.202-1.163,0.53-1.443
					c0.507-0.432,1.544,1.244,1.816,1.647c2.415,3.585,4.12,7.712,5.822,11.668c2.344,5.449,4.012,10.998,4.553,16.929
					c0.587,6.451-0.074,12.899-0.442,19.342c-0.374,6.552-0.153,12.981,1.383,19.385c0.381,1.588,0.821,3.161,1.296,4.724
					c0.279-0.162,0.557-0.324,0.836-0.486c-5.908-7.58-12.476-14.768-20.612-20.004c-3.148-2.025-6.504-3.688-9.923-5.199
					c-3.282-1.451-6.633-2.794-10.074-3.821c-1.388-0.414-2.8-0.784-4.238-0.977c-0.899-0.121-1.911-0.229-2.784,0.088
					c-0.933,0.339-1.335,1.279-1.31,2.237c0.042,1.561,1.2,2.931,2.198,4.026c1.183,1.299,2.343,2.475,3.389,3.891
					c1.471,1.992,3.149,3.822,4.901,5.569c3.635,3.624,7.607,6.882,11.893,9.708c4.927,3.248,10.268,5.931,15.589,8.47
					c2.473,1.18,4.997,2.169,7.591,3.045c2.5,0.845,5.066,1.767,6.908,3.744c0.44,0.472,1.146-0.236,0.707-0.707
					c-2.944-3.161-7.539-3.888-11.377-5.46c-4.735-1.94-9.375-4.384-13.842-6.877c-8.616-4.808-16.502-11.208-22.349-19.192
					c-0.825-1.127-1.934-2.032-2.861-3.072c-0.757-0.85-2.597-3.009-1.465-4.22c0.431-0.462,1.352-0.377,1.91-0.343
					c1.302,0.079,2.594,0.4,3.848,0.742c3.325,0.906,6.563,2.163,9.728,3.52c3.015,1.293,6.003,2.69,8.842,4.338
					c9.065,5.263,16.237,13.007,22.624,21.202c0.315,0.405,0.973-0.036,0.836-0.486c-0.986-3.244-1.814-6.541-2.31-9.897
					c-0.519-3.519-0.599-7.088-0.486-10.639c0.217-6.797,1.107-13.578,0.754-20.387c-0.325-6.263-1.728-12.301-4.161-18.077
					c-1.756-4.168-3.54-8.408-5.879-12.289c-0.827-1.372-3.262-5.095-4.486-2.014c-0.564,1.419-0.699,3.039-0.848,4.544
					c-0.223,2.254-0.31,4.521-0.35,6.785c-0.206,11.618,0.882,23.47,3.719,34.749c1.582,6.286,3.705,12.605,6.977,18.227
					c3.087,5.306,6.649,10.329,9.897,15.533c0.793,1.27,1.519,2.584,1.968,4.018c0.305-0.128,0.609-0.257,0.914-0.385
					c-2.971-5.369-5.546-11.002-6.784-17.044c-1.235-6.029-0.151-12.318,2.174-17.941c1.183-2.862,2.522-5.742,2.762-8.87
					c-0.285,0.118-0.569,0.236-0.854,0.354c2.807,3.214,4.305,7.636,4.789,11.827c0.264,2.286,0.115,4.601-0.005,6.892
					c-0.143,2.708-0.358,5.412-0.547,8.118c-0.184,2.637-0.368,5.269-0.602,7.903c-0.215,2.422-0.351,4.861-0.009,7.278
					c0.683,4.825,3.486,8.874,6.071,12.872c1.309,2.025,2.608,4.073,3.854,6.138c1.257,2.082,2.577,4.52,2.227,7.038
					c0.305-0.04,0.609-0.08,0.914-0.119c-3.981-8.417-2.779-18.228-1.718-27.16c0.628-5.289,1.431-10.559,2.514-15.774
					c0.951-4.575,2.055-9.118,2.834-13.727c0.226-1.34,0.372-3.006,1.109-4.182c0.998-1.592,2.125,2.197,2.285,2.829
					c0.61,2.41,1.195,4.742,1.352,7.237c0.162,2.577,0.063,5.173-0.134,7.745c-0.4,5.243-1.101,10.579-2.174,15.729
					c-1.022,4.907-2.706,9.646-3.761,14.545c-1.112,5.161-1.421,10.541-1.176,15.808c0.124,2.658,0.492,5.237,1.138,7.818
					c0.706,2.821,1.585,5.609,1.965,8.501c0.081,0.616,1.003,0.665,1,0c-0.028-7.115,1.116-14.138,3.175-20.937
					c1.697-5.605,3.52-11.293,6.111-16.559c2.109-4.285,4.539-8.497,7.433-12.304c0.901-1.186,1.896-2.532,3.152-3.371
					c0.276-0.185,0.587-0.395,0.881-0.268c0.642,0.278,0.691,1.472,0.716,2.04c0.092,2.114-0.386,4.258-0.853,6.307
					c-0.576,2.527-1.252,5.01-2.175,7.435c-1.215,3.193-2.661,6.296-3.985,9.444c-1.383,3.289-2.78,6.573-4.29,9.806
					c-1.466,3.139-3.158,6.121-4.931,9.095c-1.682,2.821-3.647,5.78-4.442,9.003c-0.743,3.012-0.369,6.119,0.395,9.086
					c0.845,3.282,1.995,6.488,2.928,9.747c3.855,13.47,8.534,26.937,9.57,41.007c0.127,1.726,0.192,3.455,0.2,5.185
					C224.822,260.551,225.822,260.552,225.819,259.908L225.819,259.908z"/>
			</g>
			<g>
				<path style="fill:#492216;" d="M206.006,175.777c-2.091-1.84-3.522-4.259-5.335-6.348c-1.908-2.198-4.335-4.005-6.639-5.766
					c-4.811-3.677-10.007-6.953-15.522-9.467c-10.624-4.843-22.274-6.92-33.882-7.402c-2.166-0.09-4.336-0.151-6.504-0.089
					c-1.783,0.051-3.757,0.077-5.45,0.708c-0.997,0.372-1.873,1.187-1.241,2.289c0.732,1.278,2.341,2.137,3.557,2.865
					c1.88,1.125,3.839,2.116,5.792,3.106c2.052,1.04,4.071,2.179,6.171,3.116c5.556,2.48,11.557,3.531,17.549,4.334
					c6.488,0.87,13.013,1.57,19.273,3.583c2.995,0.963,5.91,2.153,8.801,3.389c2.964,1.267,6.008,2.488,8.848,4.018
					c1.304,0.702,2.521,1.551,3.809,2.281c0.561,0.318,1.065-0.546,0.505-0.863c-1.288-0.73-2.505-1.578-3.809-2.281
					c-1.383-0.746-2.844-1.37-4.275-2.019c-2.758-1.252-5.548-2.45-8.36-3.576c-2.83-1.133-5.71-2.147-8.667-2.898
					c-3.105-0.789-6.271-1.31-9.442-1.752c-5.985-0.835-12.042-1.383-17.883-3.009c-2.868-0.798-5.648-1.862-8.277-3.265
					c-1.747-0.933-3.526-1.805-5.287-2.712c-1.827-0.94-3.665-1.893-5.38-3.029c-0.602-0.399-1.207-0.82-1.708-1.344
					c-0.157-0.164-0.33-0.351-0.415-0.566c-0.054-0.136-0.052-0.164-0.01-0.23c0.239-0.383,0.868-0.543,1.296-0.655
					c0.793-0.209,1.613-0.305,2.428-0.374c2.136-0.182,4.289-0.162,6.43-0.106c10.997,0.289,22.017,1.9,32.301,5.935
					c5.489,2.153,10.649,5.074,15.488,8.43c2.429,1.685,4.773,3.491,7.023,5.408c1.084,0.924,2.122,1.866,3.039,2.96
					c0.856,1.021,1.633,2.105,2.451,3.156c0.799,1.027,1.639,2.018,2.618,2.879C205.78,176.907,206.49,176.203,206.006,175.777
					L206.006,175.777z"/>
			</g>
			<g>
				<path style="fill:#492216;" d="M205.084,175.044c-0.943-1.525-2.59-2.449-3.884-3.639c-1.571-1.446-3.226-2.789-4.997-3.983
					c-3.672-2.477-7.553-4.753-11.579-6.607c-4.046-1.864-8.335-3.111-12.499-4.672c-4.204-1.576-8.507-2.894-12.889-3.879
					c-4.959-1.115-10.073-2.212-15.171-2.305c-0.552-0.01-0.695,0.869-0.133,0.982c2.244,0.45,4.394,1.237,6.541,2.012
					c2.146,0.775,4.287,1.454,6.514,1.956c4.572,1.029,9.159,2.029,13.619,3.484c4.464,1.456,8.8,3.271,13.19,4.928
					c2.157,0.814,4.321,1.618,6.431,2.55c1.932,0.853,3.75,1.862,5.578,2.914c1.545,0.89,3.132,1.706,4.617,2.697
					c1.323,0.883,2.921,2.018,3.414,3.615c0.189,0.613,1.155,0.351,0.964-0.266c-0.434-1.403-1.537-2.465-2.666-3.344
					c-1.34-1.042-2.819-1.888-4.299-2.712c-1.604-0.892-3.165-1.863-4.806-2.687c-2.066-1.039-4.211-1.914-6.368-2.745
					c-4.43-1.706-8.845-3.478-13.318-5.07c-4.576-1.628-9.269-2.793-14.002-3.859c-2.586-0.583-5.12-1.185-7.622-2.073
					c-2.478-0.88-4.936-1.845-7.522-2.364c-0.044,0.327-0.089,0.655-0.133,0.982c4.537,0.082,9.01,1.042,13.438,1.953
					c4.25,0.874,8.436,2.074,12.524,3.524c2.051,0.727,4.086,1.496,6.144,2.206c2.059,0.711,4.12,1.42,6.136,2.247
					c4.032,1.653,7.881,3.854,11.552,6.19c2.064,1.314,4.042,2.719,5.875,4.344c0.777,0.689,1.54,1.375,2.354,2.02
					c0.778,0.617,1.604,1.249,2.133,2.104C204.558,176.095,205.424,175.594,205.084,175.044L205.084,175.044z"/>
			</g>
			<g>
				<path style="fill:#492216;" d="M191.301,151.164c-1.192-3.376-3.816-5.983-6.101-8.644c-2.582-3.005-5.593-5.569-8.704-8.008
					c-6.369-4.992-13.14-9.479-20.444-12.99c-2.022-0.972-4.084-1.818-6.193-2.583c-2.211-0.801-4.439-1.564-6.574-2.558
					c-0.589-0.274-1.023,0.482-0.505,0.863c6.8,5.005,14.152,9.09,21.525,13.17c6.779,3.752,13.611,7.836,19.054,13.426
					c1.596,1.64,3.21,3.355,4.538,5.222c0.954,1.341,1.441,3.2,3.003,3.998c0.572,0.292,1.079-0.57,0.505-0.863
					c-1.364-0.697-1.806-2.461-2.645-3.64c-1.188-1.671-2.601-3.182-3.991-4.684c-2.599-2.807-5.591-5.231-8.714-7.429
					c-6.586-4.637-13.839-8.164-20.77-12.233c-4.121-2.42-8.15-4.997-12.001-7.831c-0.168,0.288-0.336,0.576-0.505,0.863
					c3.615,1.684,7.487,2.72,11.116,4.368c3.633,1.65,7.147,3.559,10.545,5.648c3.369,2.072,6.626,4.326,9.766,6.731
					c3.105,2.378,6.193,4.83,8.888,7.674c1.387,1.464,2.71,3.015,3.999,4.566c1.303,1.567,2.559,3.258,3.244,5.197
					C190.55,152.032,191.516,151.773,191.301,151.164L191.301,151.164z"/>
			</g>
			<g>
				<path style="fill:#492216;" d="M185.634,140.33c-0.97-3.762-3.243-7.018-4.679-10.597c-1.57-3.911-2.835-7.946-3.861-12.032
					c-2.082-8.285-3.455-16.792-3.596-25.346c-0.039-2.379-0.073-4.755-0.153-7.133c-0.084-2.47-0.141-4.942,0.003-7.412
					c-0.285,0.118-0.569,0.236-0.854,0.354c0.846,0.775,1.054,2.2,1.244,3.27c0.248,1.395,0.361,2.809,0.515,4.216
					c0.187,1.713,0.542,3.4,0.737,5.114c0.249,2.187,0.393,4.384,0.565,6.578c0.693,8.829,3.044,17.306,5.088,25.887
					c0.554,2.329,1.387,4.607,1.796,6.967c0.372,2.143,0.406,4.329,1.281,6.354c0.255,0.589,1.116,0.08,0.863-0.505
					c-0.791-1.83-0.825-3.875-1.131-5.817c-0.334-2.122-1.088-4.139-1.598-6.219c-1.056-4.313-2.156-8.619-3.134-12.949
					c-0.987-4.369-1.767-8.772-2.127-13.24c-0.18-2.233-0.321-4.47-0.563-6.698c-0.192-1.767-0.556-3.508-0.755-5.272
					c-0.177-1.562-0.298-3.132-0.573-4.681c-0.223-1.253-0.515-2.809-1.501-3.711c-0.328-0.301-0.828-0.083-0.854,0.354
					c-0.253,4.331,0.126,8.659,0.138,12.991c0.011,4.28,0.31,8.547,0.87,12.79c1.111,8.41,3.011,16.824,6,24.772
					c0.78,2.074,1.689,4.062,2.693,6.037c1.017,2,2.058,4.013,2.622,6.197C184.831,141.219,185.795,140.955,185.634,140.33
					L185.634,140.33z"/>
			</g>
			<g>
				<path style="fill:#492216;" d="M191.301,151.164c-0.863-4.244-1.948-8.458-2.438-12.768c-0.442-3.891-0.543-7.885-0.265-11.791
					c0.124-1.752,0.298-3.714,1.287-5.22c-0.305-0.04-0.609-0.08-0.914-0.119c0.718,3.908,0.612,7.914,0.547,11.869
					c-0.032,1.947-0.06,3.894,0.011,5.84c0.074,2.057,0.249,4.11,0.31,6.167c0.061,2.044-0.052,4.13,0.499,6.122
					c0.171,0.619,1.136,0.356,0.964-0.266c-0.499-1.802-0.414-3.693-0.455-5.544c-0.045-2.041-0.222-4.078-0.304-6.118
					c-0.158-3.944,0.088-7.89-0.003-11.835c-0.05-2.179-0.21-4.356-0.604-6.502c-0.083-0.452-0.697-0.449-0.914-0.119
					c-0.875,1.332-1.145,2.983-1.318,4.538c-0.194,1.753-0.268,3.54-0.254,5.303c0.036,4.477,0.446,8.902,1.319,13.294
					c0.492,2.478,1.065,4.94,1.569,7.415C190.465,152.06,191.429,151.793,191.301,151.164L191.301,151.164z"/>
			</g>
			<g>
				<path style="fill:#492216;" d="M205.986,176.297c0.18-1.495-0.055-2.99-0.292-4.465c-0.247-1.532-0.4-3.034-0.435-4.587
					c-0.076-3.335-0.033-6.704,0.119-10.037c0.296-6.464,1.725-12.773,2.391-19.192c0.288-2.779,0.452-5.912,2.582-7.981
					c-0.279-0.074-0.557-0.147-0.836-0.221c0.849,2.427-0.145,5.213-0.755,7.586c-0.786,3.054-1.534,6.126-2.018,9.244
					c-0.981,6.325-1.555,12.773-1.877,19.163c-0.077,1.529-0.043,3.047-0.03,4.576c0.014,1.55-0.014,3.127-0.499,4.614
					c-0.2,0.613,0.765,0.876,0.964,0.266c0.84-2.572,0.45-5.354,0.504-8.009c0.067-3.257,0.368-6.524,0.676-9.765
					c0.313-3.291,0.659-6.588,1.12-9.862c0.451-3.205,1.206-6.359,2.004-9.493c0.683-2.684,1.837-5.837,0.875-8.587
					c-0.123-0.352-0.553-0.495-0.836-0.221c-1.869,1.815-2.396,4.376-2.685,6.868c-0.358,3.088-0.785,6.156-1.251,9.23
					c-0.502,3.309-0.978,6.627-1.222,9.966c-0.246,3.373-0.253,6.782-0.247,10.163c0.003,1.821,0.041,3.636,0.314,5.439
					c0.266,1.756,0.647,3.519,0.432,5.302C204.909,176.934,205.909,176.929,205.986,176.297L205.986,176.297z"/>
			</g>
			<g>
				<path style="fill:#492216;" d="M210.801,195.596c1.226-5.754,2.652-11.466,4.391-17.087c1.733-5.599,3.849-11.029,6.158-16.413
					c1.153-2.689,2.389-5.411,4.366-7.607c-0.236,0-0.471,0-0.707,0c0.482,0.611,0.2,1.648,0.012,2.311
					c-0.298,1.05-0.759,2.048-1.242,3.024c-0.403,0.815-0.844,1.612-1.237,2.433c-0.62,1.296-1.125,2.656-1.645,3.995
					c-1.252,3.222-2.544,6.411-3.956,9.567c-1.34,2.996-2.688,5.994-3.794,9.087c-0.615,1.718-1.143,3.462-1.767,5.178
					c-0.595,1.636-1.142,3.295-1.229,5.047c-0.032,0.643,0.968,0.642,1,0c0.082-1.657,0.631-3.235,1.193-4.781
					c0.57-1.568,1.061-3.158,1.61-4.733c1.145-3.281,2.579-6.448,3.996-9.618c1.398-3.127,2.671-6.289,3.911-9.481
					c0.527-1.355,1.032-2.734,1.682-4.036c0.451-0.903,0.933-1.79,1.365-2.702c0.778-1.641,2.14-4.308,0.807-5.997
					c-0.162-0.205-0.542-0.183-0.707,0c-1.778,1.976-2.996,4.338-4.063,6.753c-1.136,2.57-2.239,5.16-3.261,7.777
					c-2.188,5.607-3.997,11.357-5.524,17.177c-0.856,3.261-1.622,6.544-2.325,9.841
					C209.703,195.958,210.667,196.226,210.801,195.596L210.801,195.596z"/>
			</g>
			<g>
				<path style="fill:#492216;" d="M201.67,338.164c-1.398,5.577-3.316,11.005-5.025,16.49c-1.66,5.332-3.181,10.726-5.188,15.942
					c-1.938,5.038-4.418,9.856-7.21,14.471c-0.687,1.135-1.393,2.258-2.116,3.371c-0.684,1.051-1.335,2.184-2.149,3.14
					c-1.336,1.57-3.21,2.539-5.085,3.316c-3.47,1.438-7.653,2.467-10.165,5.487c-1.021,1.227-1.592,2.913-0.66,4.359
					c0.946,1.468,2.603,2.473,4.029,3.414c0.711,0.469,1.438,0.921,2.123,1.429c0.64,0.475,1.202,1.063,1.757,1.631
					c0.936,0.958,2.934,2.886,2.183,4.409c-0.452,0.916-1.744,1.303-2.634,1.609c-1.111,0.383-2.262,0.644-3.421,0.836
					c-2.427,0.401-4.893,0.491-7.346,0.62c-2.74,0.144-5.475,0.334-8.217,0.442c-2.869,0.113-5.74,0.199-8.608,0.352
					c-2.804,0.149-5.608,0.349-8.387,0.764c-2.593,0.387-5.165,0.949-7.718,1.536c-0.912,0.21-1.7,0.608-2.191,1.434
					c-0.15,0.253-0.035,0.521,0.179,0.684c0.842,0.64,1.969,0.71,2.988,0.707c1.175-0.004,2.31-0.044,3.483,0.076
					c3.022,0.31,5.999,0.925,8.932,1.706c5.727,1.527,11.457,3.082,17.059,5.028c3.21,1.115,6.373,2.364,9.449,3.812
					c0.579,0.273,1.087-0.589,0.505-0.863c-5.371-2.529-10.995-4.462-16.682-6.146c-2.822-0.835-5.662-1.612-8.504-2.376
					c-2.893-0.778-5.791-1.499-8.762-1.916c-1.435-0.201-2.88-0.393-4.331-0.349c-1.183,0.036-2.629,0.22-3.632-0.542
					c0.06,0.228,0.12,0.456,0.179,0.684c0.552-0.929,1.688-0.983,2.646-1.182c1.32-0.274,2.625-0.608,3.949-0.863
					c2.854-0.549,5.728-0.866,8.626-1.061c5.795-0.39,11.606-0.44,17.402-0.83c4.626-0.311,9.545-0.159,13.876-2.061
					c0.832-0.365,1.679-0.851,2.079-1.71c0.335-0.719,0.258-1.525-0.025-2.246c-0.658-1.675-2.077-3.006-3.35-4.225
					c-1.199-1.147-2.69-1.951-4.049-2.889c-1.168-0.806-3.155-2.013-3.07-3.657c0.096-1.843,2.078-3.201,3.497-4.062
					c1.678-1.018,3.506-1.702,5.334-2.394c1.915-0.725,3.876-1.474,5.543-2.689c1.853-1.35,2.992-3.3,4.217-5.196
					c2.915-4.509,5.555-9.206,7.723-14.122c2.24-5.079,3.87-10.391,5.497-15.69c1.678-5.469,3.531-10.887,5.135-16.378
					c0.391-1.339,0.76-2.684,1.099-4.037C202.791,337.805,201.827,337.539,201.67,338.164L201.67,338.164z"/>
			</g>
		</g>
		<g>
			<path style="fill:#FFFFFF;" d="M169.53,249.152c-0.945,1.124-1.484,2.582-1.496,4.05c-0.005,0.561,0.2,1.268,0.758,1.327
				c0.381,0.04,0.704-0.261,0.963-0.543c0.92-1.001,1.781-2.056,2.577-3.158c0.579-0.801,1.117-1.942,0.482-2.698
				c-0.481-0.573-1.422-0.536-2.046-0.124s-1.008,1.094-1.368,1.75"/>
			<path style="fill:#FFFFFF;" d="M166.274,261.078c-0.205,0.836-0.109,1.742,0.266,2.517c0.143,0.296,0.435,0.614,0.743,0.5
				c0.211-0.078,0.302-0.32,0.365-0.536c0.223-0.765,0.402-1.544,0.534-2.33c0.096-0.571,0.083-1.311-0.448-1.544
				c-0.402-0.176-0.887,0.088-1.108,0.466c-0.221,0.379-0.245,0.837-0.264,1.275"/>
		</g>
		<g>
			<path style="fill:#FFFFFF;" d="M267.179,189.288c-1.461,0.14-2.867,0.804-3.904,1.844c-0.396,0.397-0.745,1.045-0.388,1.478
				c0.244,0.296,0.685,0.307,1.068,0.287c1.358-0.071,2.711-0.221,4.051-0.45c0.974-0.166,2.157-0.604,2.234-1.589
				c0.058-0.746-0.639-1.379-1.374-1.522c-0.734-0.143-1.485,0.075-2.202,0.291"/>
			<path style="fill:#FFFFFF;" d="M256.504,195.522c-0.732,0.454-1.298,1.168-1.573,1.983c-0.105,0.311-0.12,0.743,0.18,0.878
				c0.205,0.092,0.44-0.017,0.636-0.127c0.695-0.39,1.368-0.821,2.013-1.289c0.469-0.34,0.977-0.878,0.761-1.415
				c-0.163-0.407-0.694-0.558-1.117-0.443s-0.761,0.426-1.082,0.725"/>
		</g>
	</g>
</g>
</svg>
